<?xml version="1.0" encoding="utf-8"?>
<!-- Generator: Adobe Illustrator 19.0.0, SVG Export Plug-In . SVG Version: 6.00 Build 0)  -->
<svg version="1.1" id="Layer_2" xmlns="http://www.w3.org/2000/svg" xmlns:xlink="http://www.w3.org/1999/xlink" x="0px" y="0px"
	 viewBox="-30 30 60 60" style="enable-background:new -30 30 60 60;" xml:space="preserve">
<style type="text/css">
	.st0{fill:#01B4BB;}
</style>
<g id="XMLID_62_">
	<g id="XMLID_78_">
		<g id="XMLID_79_">
			<path id="XMLID_80_" class="st0" d="M0,78.3c-0.1,0-0.3,0-0.4-0.1C-20.2,64.5-21,39.4-21,39.2c0-0.2,0.1-0.4,0.2-0.7
				c0.2-0.1,0.4-0.2,0.7-0.2c0,0,0.4,0,1.2,0c3.1,0,11.2-0.8,18.3-8.1C-0.4,30.1-0.2,30,0,30l0,0c0.2,0,0.4,0.1,0.6,0.2
				c7.4,7.4,16.5,8,19,8c0.3,0,0.6,0,0.6,0c0.2,0,0.4,0.1,0.7,0.2c0.1,0.1,0.2,0.3,0.2,0.6S20.2,64.3,0.4,78
				C0.3,78.3,0.2,78.3,0,78.3z M-19.3,40.1C-19,44.5-16.6,64.6,0,76.5c16.7-11.8,19-32.2,19.3-36.5c-3,0-11.8-0.8-19.3-7.8
				C-7.7,39.5-16.5,40.1-19.3,40.1z"/>
		</g>
	</g>
	<g id="XMLID_63_">
		<g id="XMLID_74_">
			<path id="XMLID_75_" class="st0" d="M5.7,55.6c-1.7,0-3.1-0.7-4.3-1.8c-1.1-1.1-1.8-2.7-1.8-4.3c0-1.7,0.7-3.1,1.8-4.3l1.4-1.4
				c0.8-0.8,1.8-1.2,2.8-1.2c1.1,0,2.1,0.4,2.8,1.2l2.9,2.9c1.5,1.5,1.5,4.1,0,5.6l-1.4,1.4C8.8,55,7.4,55.6,5.7,55.6z M5.7,44.4
				c-0.7,0-1.2,0.2-1.7,0.7l-1.4,1.4c-0.8,0.8-1.3,1.9-1.3,3.1c0,1.2,0.4,2.3,1.3,3.1C3.4,53.4,4.5,54,5.7,54s2.3-0.4,3.1-1.3
				l1.4-1.4c0.9-0.9,0.9-2.4,0-3.3L7.4,45C7,44.6,6.4,44.4,5.7,44.4z"/>
		</g>
		<g id="XMLID_72_">
			<path id="XMLID_47_" class="st0" d="M-8.2,64.9c-0.2,0-0.4-0.1-0.6-0.2l-0.8-0.8c-0.2-0.2-0.3-0.6-0.2-0.9l0.7-1.7
				c0-0.1,0.1-0.2,0.2-0.3l7-7l0.2-1c0-0.1,0.1-0.3,0.2-0.4L0,51.2c0.3-0.3,0.9-0.3,1.1,0c0.3,0.3,0.3,0.9,0,1.1l-1.2,1.2l-0.2,1
				c0,0.1-0.1,0.3-0.2,0.4l-7.1,7.1L-8,63l0.1,0.1l1-0.3l7.1-7.1c0.1-0.1,0.2-0.2,0.4-0.2l1-0.2l1.2-1.2c0.3-0.3,0.9-0.3,1.1,0
				c0.3,0.3,0.3,0.9,0,1.1l-1.4,1.4c-0.1,0.1-0.2,0.2-0.4,0.2l-1,0.2l-7,7c-0.1,0.1-0.2,0.1-0.3,0.2l-1.7,0.7
				C-8,64.8-8.1,64.9-8.2,64.9z"/>
		</g>
		<g id="XMLID_66_">
			<path id="XMLID_67_" class="st0" d="M5.7,52.8c-0.9,0-1.7-0.3-2.2-0.9c-1.2-1.2-1.2-3.3,0-4.5c1.2-1.2,3.3-1.2,4.5,0
				C8.6,47.9,9,48.8,9,49.6c0,0.9-0.3,1.7-0.9,2.2C7.4,52.4,6.6,52.8,5.7,52.8z M5.7,48c-0.4,0-0.8,0.1-1.1,0.4
				c-0.6,0.6-0.6,1.5,0,2.2c0.6,0.6,1.7,0.6,2.2,0c0.3-0.3,0.4-0.7,0.4-1.1c0-0.4-0.1-0.8-0.4-1.1C6.5,48.2,6.2,48,5.7,48z"/>
		</g>
	</g>
</g>
</svg>
