<?xml version="1.0" encoding="utf-8"?>
<!-- Generator: Adobe Illustrator 19.0.0, SVG Export Plug-In . SVG Version: 6.00 Build 0)  -->
<svg version="1.1" id="Layer_1" xmlns="http://www.w3.org/2000/svg" xmlns:xlink="http://www.w3.org/1999/xlink" x="0px" y="0px" width="60px" height="60px" viewBox="26 42 60 60" style="enable-background:new 26 42 60 60;" xml:space="preserve">
<style type="text/css">
	.st0{fill:#01B4BB;}
</style>
<path id="XMLID_26_" class="st0" d="M70.9,51.9h-2.8L65.3,45c-0.2-0.4-0.7-0.7-1.1-0.5l-4.4,1.8l-2.8-4c-0.3-0.4-0.8-0.5-1.2-0.2
	l-13.9,9.8h-0.9c-2.3,0-4.1,1.8-4.1,4.1v23c0,2.3,1.8,4.1,4.1,4.1h29.8c2.3,0,4.1-1.8,4.1-4.1V56C75,53.8,73.2,51.9,70.9,51.9z
	 M64.1,46.5l2.2,5.5h-2.5l-2.9-4.2L64.1,46.5z M56.1,44l5.6,7.9H44.9L56.1,44z M69.1,79.1c0,1.3-1.1,2.4-2.4,2.4H41.1
	c-1.3,0-2.4-1.1-2.4-2.4V56c0-1.3,1.1-2.4,2.4-2.4h25.6c1.3,0,2.4,1.1,2.4,2.4v6.4h-3.6c-2.8,0-5.1,2.3-5.1,5.1
	c0,2.8,2.3,5.1,5.1,5.1h3.6V79.1z M73.3,79.1c0,1.3-1.1,2.4-2.4,2.4h-0.9c0.5-0.7,0.8-1.5,0.8-2.4v-6.4h2.5V79.1z M73.3,71h-7.7
	c-1.9,0-3.4-1.5-3.4-3.4s1.5-3.4,3.4-3.4h7.7V71z M73.3,62.4h-2.5V56c0-0.9-0.3-1.7-0.8-2.4h0.9c1.3,0,2.4,1.1,2.4,2.4V62.4z
	 M64.4,67.6c0,0.6,0.5,1.2,1.2,1.2c0.6,0,1.2-0.5,1.2-1.2c0-0.6-0.5-1.2-1.2-1.2C64.9,66.4,64.4,66.9,64.4,67.6z"/>
</svg>
