<?xml version="1.0" encoding="utf-8"?>
<!-- Generator: Adobe Illustrator 19.0.0, SVG Export Plug-In . SVG Version: 6.00 Build 0)  -->
<svg version="1.1" id="Layer_2" xmlns="http://www.w3.org/2000/svg" xmlns:xlink="http://www.w3.org/1999/xlink" x="0px" y="0px" width="60px" height="60px" viewBox="26 42 60 60" style="enable-background:new 26 42 60 60;" xml:space="preserve">
<style type="text/css">
	.st0{fill:#01B4B9;}
</style>
<g id="XMLID_140_">
	<g id="XMLID_145_">
		<g id="XMLID_172_">
			<path id="XMLID_173_" class="st0" d="M63.4,54.7c-0.3,0-0.5-0.1-0.7-0.4c-3.1-4.2-8.4-6.7-14.3-6.7c-5.8,0-11.2,2.5-14.2,6.7
				c-0.3,0.4-0.9,0.5-1.3,0.2c-0.4-0.3-0.5-0.9-0.2-1.3c3.4-4.6,9.3-7.4,15.7-7.4c6.4,0,12.3,2.8,15.7,7.5c0.3,0.4,0.2,1-0.2,1.3
				C63.8,54.7,63.6,54.7,63.4,54.7z"/>
		</g>
		<g id="XMLID_170_">
			<path id="XMLID_171_" class="st0" d="M76.7,67.4h-6c-0.5,0-0.9-0.4-0.9-0.9c0-0.5,0.4-0.9,0.9-0.9h5.1v-5.7
				c0-0.9-0.2-1.8-0.7-2.5c-0.3-0.4-0.1-1,0.3-1.2c0.4-0.3,1-0.1,1.2,0.3c0.6,1,1,2.2,1,3.5v6.6C77.6,67,77.2,67.4,76.7,67.4z"/>
		</g>
		<g id="XMLID_168_">
			<path id="XMLID_169_" class="st0" d="M32.6,67.4h-2.4c-0.2,0-0.4-0.1-0.5-0.2l-3.4-2.5C26.1,64.6,26,64.3,26,64v-8.2
				c0-0.3,0.1-0.5,0.3-0.7l1.8-1.6c0.2-0.1,0.4-0.2,0.6-0.2H71c0.5,0,0.9,0.4,0.9,0.9s-0.4,0.9-0.9,0.9H29l-1.3,1.1v7.4l2.8,2h2.1
				c0.5,0,0.9,0.4,0.9,0.9C33.5,67,33.1,67.4,32.6,67.4z"/>
		</g>
		<g id="XMLID_166_">
			<path id="XMLID_167_" class="st0" d="M61.3,67.4H42.2c-0.5,0-0.9-0.4-0.9-0.9c0-0.5,0.4-0.9,0.9-0.9h19.1c0.5,0,0.9,0.4,0.9,0.9
				C62.2,67,61.8,67.4,61.3,67.4z"/>
		</g>
		<g id="XMLID_162_">
			<path id="XMLID_163_" class="st0" d="M66,72.2c-3.1,0-5.6-2.5-5.6-5.6c0-3.1,2.5-5.6,5.6-5.6c3.1,0,5.6,2.5,5.6,5.6
				C71.7,69.6,69.2,72.2,66,72.2z M66,62.6c-2.1,0-3.9,1.7-3.9,3.9c0,2.1,1.7,3.9,3.9,3.9c2.1,0,3.9-1.7,3.9-3.9S68.2,62.6,66,62.6z
				"/>
		</g>
		<g id="XMLID_158_">
			<path id="XMLID_159_" class="st0" d="M37.4,72.2c-3.1,0-5.6-2.5-5.6-5.6c0-3.1,2.5-5.6,5.6-5.6s5.6,2.5,5.6,5.6
				C43,69.6,40.5,72.2,37.4,72.2z M37.4,62.6c-2.1,0-3.9,1.7-3.9,3.9c0,2.1,1.7,3.9,3.9,3.9s3.9-1.7,3.9-3.9S39.5,62.6,37.4,62.6z"
				/>
		</g>
		<g id="XMLID_154_">
			<path id="XMLID_155_" class="st0" d="M37.4,67.9c-0.8,0-1.4-0.6-1.4-1.4c0-0.8,0.6-1.4,1.4-1.4c0.8,0,1.4,0.6,1.4,1.4
				C38.8,67.3,38.2,67.9,37.4,67.9z M37.4,66.1c-0.2,0-0.4,0.2-0.4,0.4s0.2,0.4,0.4,0.4c0.2,0,0.4-0.2,0.4-0.4S37.6,66.1,37.4,66.1z
				"/>
		</g>
		<g id="XMLID_150_">
			<path id="XMLID_151_" class="st0" d="M66,67.9c-0.8,0-1.4-0.6-1.4-1.4c0-0.8,0.6-1.4,1.4-1.4s1.4,0.6,1.4,1.4
				C67.4,67.3,66.8,67.9,66,67.9z M66,66.1c-0.2,0-0.4,0.2-0.4,0.4s0.2,0.4,0.4,0.4s0.4-0.2,0.4-0.4S66.3,66.1,66,66.1z"/>
		</g>
		<g id="XMLID_148_">
			<path id="XMLID_149_" class="st0" d="M46.3,55.1c-0.5,0-0.9-0.4-0.9-0.9v-7.3c0-0.5,0.4-0.9,0.9-0.9s0.9,0.4,0.9,0.9v7.3
				C47.2,54.7,46.8,55.1,46.3,55.1z"/>
		</g>
		<g id="XMLID_146_">
			<path id="XMLID_147_" class="st0" d="M50.8,59.7h-2.4c-0.5,0-0.9-0.4-0.9-0.9c0-0.5,0.4-0.9,0.9-0.9h2.4c0.5,0,0.9,0.4,0.9,0.9
				C51.7,59.3,51.3,59.7,50.8,59.7z"/>
		</g>
	</g>
	<g id="XMLID_141_">
		<path id="XMLID_142_" class="st0" d="M69.1,61.2c-0.2,0-0.4-0.1-0.6-0.2c-0.3-0.3-0.4-0.7-0.2-1l2.7-5.7l-5.2-5.6
			c-0.3-0.3-0.3-0.8-0.1-1.1c0.2-0.3,0.7-0.5,1.1-0.3l5.7,2.4l9.8-7.3c0.4-0.3,0.8-0.2,1.2,0.1c0.3,0.3,0.4,0.8,0.1,1.1l-5.7,8.5
			l7.6,3.4c0.4,0.2,0.6,0.6,0.5,1c-0.1,0.4-0.5,0.7-0.9,0.7l-7.7-0.5l-7.8,4.6C69.4,61.2,69.3,61.2,69.1,61.2z M69.9,50.4l2.8,3.1
			c0.2,0.3,0.3,0.7,0.2,1l-1.7,3.7l5.5-3.2c0.2-0.1,0.3-0.1,0.5-0.1l3,0.2l-4-1.8c-0.2-0.1-0.4-0.3-0.5-0.6s0-0.5,0.1-0.7l3.4-5.1
			l-6,4.5c-0.3,0.2-0.6,0.2-0.9,0.1L69.9,50.4z"/>
	</g>
</g>
</svg>
