<?xml version="1.0" encoding="utf-8"?>
<!-- Generator: Adobe Illustrator 15.1.0, SVG Export Plug-In . SVG Version: 6.00 Build 0)  -->
<!DOCTYPE svg PUBLIC "-//W3C//DTD SVG 1.1//EN" "http://www.w3.org/Graphics/SVG/1.1/DTD/svg11.dtd">
<svg version="1.1" id="Layer_2" xmlns="http://www.w3.org/2000/svg" xmlns:xlink="http://www.w3.org/1999/xlink" x="0px" y="0px"
	 width="120px" height="120px" viewBox="0 0 120 120" enable-background="new 0 0 120 120" xml:space="preserve">
<g>
	<path fill="#01b4bb" d="M42.269,121c-12.285,0-22.279-9.995-22.279-22.279s9.994-22.279,22.279-22.279
		c12.284,0,22.278,9.994,22.278,22.279S54.553,121,42.269,121z M42.269,81.042c-9.747,0-17.679,7.931-17.679,17.679
		c0,9.749,7.932,17.679,17.679,17.679c9.749,0,17.679-7.931,17.679-17.679C59.947,88.973,52.018,81.042,42.269,81.042z"/>
</g>
<g>
	
		<path fill="#01b4bb" stroke="#FFFFFF" stroke-width="2.5" stroke-linecap="round" stroke-linejoin="round" stroke-miterlimit="10" d="
		M87.731,116.595"/>
</g>
<g>
	
		<path fill="#01b4bb" stroke="#FFFFFF" stroke-width="2.5" stroke-linecap="round" stroke-linejoin="round" stroke-miterlimit="10" d="
		M92.387,111.94"/>
</g>
<g>
	<path fill="#01b4bb" d="M42.269,107.904c-5.063,0-9.184-4.119-9.184-9.183c0-5.063,4.12-9.183,9.184-9.183
		c5.064,0,9.183,4.119,9.183,9.183C51.451,103.785,47.333,107.904,42.269,107.904z M42.269,94.138c-2.527,0-4.583,2.056-4.583,4.583
		c0,2.528,2.056,4.583,4.583,4.583s4.583-2.055,4.583-4.583C46.852,96.193,44.796,94.138,42.269,94.138z"/>
</g>
<g>
	<path fill="#01b4bb" d="M67.95,25.997c-6.893,0-12.499-5.606-12.499-12.498S61.058,1,67.95,1c6.892,0,12.498,5.606,12.498,12.499
		S74.842,25.997,67.95,25.997z M67.95,5.6c-4.355,0-7.898,3.543-7.898,7.898c0,4.354,3.543,7.898,7.898,7.898
		c4.354,0,7.897-3.543,7.897-7.898C75.848,9.144,72.305,5.6,67.95,5.6z"/>
</g>
<g>
	<path fill="#01b4bb" d="M79.677,113.243H58.281c-1.27,0-2.3-1.03-2.3-2.3c0-1.27,1.03-2.3,2.3-2.3h21.396
		c1.271,0,2.301,1.03,2.301,2.3C81.978,112.213,80.947,113.243,79.677,113.243z"/>
</g>
<g>
	<path fill="#01b4bb" d="M87.539,100.884c-1.148,0-2.142-0.86-2.28-2.029L81.39,66.132c-0.011-0.09-0.016-0.18-0.016-0.27
		c0-1.704-1.354-3.097-3.039-3.163l-43.563,5.5c-0.096,0.011-0.19,0.018-0.288,0.018c-1.746,0-3.166,1.419-3.166,3.165v12.315
		c0,1.271-1.029,2.3-2.3,2.3s-2.3-1.029-2.3-2.3V71.381c0-4.229,3.399-7.68,7.61-7.763l43.593-5.504
		c0.096-0.012,0.19-0.018,0.287-0.018c4.232,0,7.684,3.404,7.763,7.618l3.854,32.6c0.149,1.261-0.752,2.405-2.014,2.554
		C87.721,100.879,87.631,100.884,87.539,100.884z"/>
</g>
<g>
	<path fill="#01b4bb" d="M46.15,65.401c-1.271,0-2.3-1.029-2.3-2.3V36.355c0-6.388,5.197-11.585,11.585-11.585h2.199
		c6.388,0,11.584,5.197,11.584,11.585v23.066c0,1.271-1.029,2.3-2.3,2.3s-2.3-1.03-2.3-2.3V36.355c0-3.852-3.134-6.985-6.984-6.985
		h-2.199c-3.852,0-6.985,3.133-6.985,6.985v26.746C48.45,64.372,47.421,65.401,46.15,65.401z"/>
</g>
<g>
	<path fill="#01b4bb" d="M76.035,49.622c-9.908,0-17.146-4.1-21.523-12.196c-0.604-1.118-0.189-2.513,0.929-3.118
		c1.118-0.604,2.512-0.188,3.118,0.929c3.594,6.646,9.132,9.773,17.376,9.785l9.844-11.769c0.812-0.975,2.266-1.104,3.239-0.29
		c0.975,0.815,1.104,2.266,0.29,3.24L78.786,48.783c-0.422,0.505-1.04,0.805-1.7,0.824C76.732,49.616,76.382,49.622,76.035,49.622z"
		/>
</g>
<g>
	<path fill="#01b4bb" d="M38.118,66.261c-1.27,0-2.3-1.03-2.3-2.3v-9.642c0-3.271-2.661-5.932-5.932-5.932h-2.329
		c-1.271,0-2.3-1.029-2.3-2.3s1.029-2.3,2.3-2.3h2.329c5.808,0,10.532,4.725,10.532,10.532v9.642
		C40.419,65.231,39.389,66.261,38.118,66.261z"/>
</g>
<g>
	<path fill="#01b4bb" d="M21.436,48.386h-3.803c-1.271,0-2.3-1.029-2.3-2.3s1.029-2.3,2.3-2.3h3.803c1.271,0,2.3,1.03,2.3,2.3
		S22.706,48.386,21.436,48.386z"/>
</g>
<g>
	<path fill="#01b4bb" d="M89.317,121c-6.583,0-11.94-5.356-11.94-11.94s5.357-11.939,11.94-11.939
		c6.585,0,11.941,5.355,11.941,11.939S95.902,121,89.317,121z M89.317,101.72c-4.046,0-7.34,3.292-7.34,7.339
		c0,4.047,3.294,7.34,7.34,7.34c4.047,0,7.341-3.293,7.341-7.34C96.658,105.013,93.364,101.72,89.317,101.72z"/>
</g>
</svg>
