<?xml version="1.0" encoding="utf-8"?>
<!-- Generator: Adobe Illustrator 19.0.0, SVG Export Plug-In . SVG Version: 6.00 Build 0)  -->
<svg version="1.1" id="Layer_2" xmlns="http://www.w3.org/2000/svg" xmlns:xlink="http://www.w3.org/1999/xlink" x="0px" y="0px" width="60px" height="60px" viewBox="26 42 60 60" style="enable-background:new 26 42 60 60;" xml:space="preserve">
<style type="text/css">
	.st0{fill:#01B4BB;}
</style>
<g>
	<g>
		<path class="st0" d="M75.4,71.9c-3.1,0-5.6-2.5-5.6-5.6c0-3.1,2.5-5.6,5.6-5.6c3.1,0,5.6,2.5,5.6,5.6
			C81.1,69.4,78.5,71.9,75.4,71.9z M75.4,62.8c-2,0-3.5,1.6-3.5,3.5s1.6,3.5,3.5,3.5s3.5-1.6,3.5-3.5C79,64.4,77.4,62.8,75.4,62.8z"
			/>
	</g>
	<g>
		<path class="st0" d="M75.4,67.8c-0.8,0-1.5-0.7-1.5-1.5s0.7-1.5,1.5-1.5s1.5,0.7,1.5,1.5S76.3,67.8,75.4,67.8z M75.4,65.8
			c-0.3,0-0.6,0.3-0.6,0.6s0.3,0.6,0.6,0.6s0.6-0.3,0.6-0.6S75.8,65.8,75.4,65.8z"/>
	</g>
	<g>
		<path class="st0" d="M84.1,55.5c-0.6,0-1-0.5-1-1v-7c0-0.6,0.5-1,1-1s1,0.5,1,1v7C85.1,55,84.6,55.5,84.1,55.5z"/>
	</g>
	<g>
		<path class="st0" d="M58,67.3h-5.9c-0.6,0-1-0.5-1-1s0.5-1,1-1h4.8v-5.5c0-0.9-0.2-1.7-0.7-2.4c-0.3-0.5-0.2-1.1,0.3-1.4
			c0.5-0.3,1.1-0.2,1.4,0.3c0.7,1,1,2.3,1,3.5v6.5C59,66.8,58.5,67.3,58,67.3z"/>
	</g>
	<g>
		<path class="st0" d="M47.4,71.9c-3.1,0-5.7-2.6-5.7-5.7s2.6-5.7,5.7-5.7s5.7,2.6,5.7,5.7S50.6,71.9,47.4,71.9z M47.4,62.6
			c-2,0-3.6,1.6-3.6,3.6s1.6,3.6,3.6,3.6c2,0,3.6-1.6,3.6-3.6S49.4,62.6,47.4,62.6z"/>
	</g>
	<g>
		<path class="st0" d="M47.4,67.7c-0.8,0-1.5-0.7-1.5-1.5c0-0.8,0.7-1.5,1.5-1.5c0.8,0,1.5,0.7,1.5,1.5
			C48.9,67.1,48.3,67.7,47.4,67.7z M47.4,65.7c-0.3,0-0.6,0.3-0.6,0.6s0.3,0.6,0.6,0.6c0.3,0,0.6-0.3,0.6-0.6S47.7,65.7,47.4,65.7z"
			/>
	</g>
	<g>
		<path class="st0" d="M28.1,55.1c-0.6,0-1-0.5-1-1v-7.2c0-0.6,0.5-1,1-1s1,0.5,1,1v7.2C29.1,54.7,28.6,55.1,28.1,55.1z"/>
	</g>
	<g>
		<path class="st0" d="M32.5,59.7h-2.3c-0.6,0-1-0.5-1-1s0.5-1,1-1h2.3c0.6,0,1,0.5,1,1S33,59.7,32.5,59.7z"/>
	</g>
	<g>
		<path class="st0" d="M50.5,61.2c-0.3,0-0.5-0.1-0.7-0.3c-0.3-0.3-0.4-0.8-0.2-1.2l2.6-5.6l-5-5.5c-0.3-0.4-0.4-0.9-0.1-1.3
			c0.3-0.4,0.8-0.5,1.2-0.4l5.5,2.3l9.6-7.1c0.4-0.3,1-0.3,1.3,0.1c0.4,0.3,0.4,0.9,0.1,1.3l-5.5,8.2l7.3,3.3
			c0.5,0.2,0.7,0.7,0.6,1.2c-0.1,0.5-0.6,0.8-1.1,0.8l-7.5-0.5L51,61.1C50.8,61.2,50.6,61.2,50.5,61.2z M51.8,50.8l2.3,2.5
			c0.3,0.3,0.4,0.8,0.2,1.1l-1.5,3.2l5-2.9c0.2-0.1,0.4-0.2,0.6-0.1l2.1,0.1l-3.2-1.4c-0.3-0.1-0.5-0.4-0.6-0.7
			c-0.1-0.3,0-0.6,0.1-0.9l2.8-4.2l-5.2,3.9c-0.3,0.2-0.7,0.3-1,0.1L51.8,50.8z"/>
	</g>
	<path class="st0" d="M86,65.4c-0.1,0-0.2-0.1-0.3-0.1H80c-0.6,0-1,0.5-1,1c0,0.6,0.5,1,1,1h5.6c0.1,0,0.2,0,0.3-0.1V65.4z"/>
	<path class="st0" d="M52.3,53.1H26v2.1h26.3c0.6,0,1-0.5,1-1C53.4,53.5,52.9,53.1,52.3,53.1z"/>
	<path class="st0" d="M45.7,53.2c-3.4-4.6-9.2-7.4-15.6-7.4c-1.4,0-2.8,0.1-4.1,0.4v2.1c1.3-0.3,2.7-0.4,4.1-0.4
		c5.7,0,10.9,2.4,13.9,6.5c0.2,0.3,0.5,0.4,0.8,0.4c0.2,0,0.4-0.1,0.6-0.2C45.9,54.3,46,53.6,45.7,53.2z"/>
	<path class="st0" d="M42.8,65.2H26v2.1h16.8c0.6,0,1-0.5,1-1C43.8,65.7,43.3,65.2,42.8,65.2z"/>
	<path class="st0" d="M86,46.3c-6.2,0-11.9,2.7-15.2,7.2c-0.3,0.5-0.2,1.1,0.2,1.4c0.2,0.1,0.4,0.2,0.6,0.2c0.3,0,0.6-0.1,0.8-0.4
		c2.9-4,8-6.3,13.5-6.4V46.3z"/>
	<path class="st0" d="M67.5,55.5h18.2c0.1,0,0.2,0,0.3-0.1v-1.9c-0.1,0-0.2-0.1-0.3-0.1H67.1c-0.3,0-0.5,0.1-0.7,0.3l-1.7,1.6
		c-0.2,0.2-0.3,0.5-0.3,0.8v7.9c0,0.3,0.2,0.6,0.4,0.8l3.2,2.4c0.2,0.1,0.4,0.2,0.6,0.2h2.3c0.6,0,1-0.5,1-1c0-0.6-0.5-1-1-1h-2
		l-2.5-1.9v-6.9L67.5,55.5z"/>
</g>
</svg>
