<?xml version="1.0" encoding="utf-8"?>
<!-- Generator: Adobe Illustrator 19.0.0, SVG Export Plug-In . SVG Version: 6.00 Build 0)  -->
<svg version="1.1" id="Layer_2" xmlns="http://www.w3.org/2000/svg" xmlns:xlink="http://www.w3.org/1999/xlink" x="0px" y="0px" width="60px" height="60px" viewBox="26 42 60 60" style="enable-background:new 26 42 60 60;" xml:space="preserve">
<style type="text/css">
	.st0{fill:#01B4BB;}
</style>
<g id="XMLID_203_">
	<g id="XMLID_206_">
		<g id="XMLID_216_">
			<path id="XMLID_217_" class="st0" d="M64.2,76.1c-0.4,0-0.8-0.2-0.9-0.6c-0.2-0.5,0-1.1,0.5-1.4c5.5-2.6,9.1-8.2,9.1-14.3
				c0-8.7-7.1-15.7-15.7-15.7s-15.7,7.1-15.7,15.7c0,5.9,3.3,11.3,8.6,14c0.5,0.3,0.7,0.9,0.5,1.4c-0.3,0.5-0.9,0.7-1.4,0.5
				c-6-3.1-9.7-9.2-9.7-15.9C39.2,50,47.2,42,57,42s17.8,8,17.8,17.8c0,6.9-4,13.2-10.3,16.1C64.5,76,64.3,76.1,64.2,76.1z"/>
		</g>
		<g id="XMLID_211_">
			<g id="XMLID_214_">
				<path id="XMLID_215_" class="st0" d="M59.8,70.7c-0.3,0-0.5-0.1-0.7-0.3l-8.3-8.3c-0.3-0.3-0.4-0.7-0.3-1
					c0.1-0.4,0.4-0.6,0.8-0.7c3.5-0.8,5-3.1,4.7-7.2c0-0.6,0.4-1.1,1-1.1c0.6,0,1.1,0.4,1.1,1c0.4,5.3-2,7.7-4.6,8.8l7,7
					c0.4,0.4,0.4,1.1,0,1.5C60.3,70.6,60.1,70.7,59.8,70.7z"/>
			</g>
			<g id="XMLID_212_">
				<path id="XMLID_213_" class="st0" d="M62.5,53.2h-11c-0.6,0-1-0.5-1-1c0-0.6,0.5-1,1-1h11c0.6,0,1,0.5,1,1
					C63.6,52.7,63.1,53.2,62.5,53.2z"/>
			</g>
		</g>
		<g id="XMLID_209_">
			<path id="XMLID_210_" class="st0" d="M72.4,88.2c-0.2,0-0.4-0.1-0.6-0.2l-16-11.7l-5.7,5.5c-0.4,0.4-0.9,0.4-1.3,0.1l-11.3-8.5
				c-0.5-0.3-0.6-1-0.2-1.5c0.3-0.5,1-0.6,1.5-0.2l10.6,8l5.7-5.5c0.4-0.4,0.9-0.4,1.3-0.1L73,86.3c0.5,0.3,0.6,1,0.2,1.5
				C73.1,88,72.8,88.2,72.4,88.2z"/>
		</g>
		<g id="XMLID_207_">
			<path id="XMLID_208_" class="st0" d="M68.7,90c-0.6,0-1-0.4-1-1c0-0.6,0.4-1.1,1-1.1l4.2-0.2l-0.2-4.2c0-0.6,0.4-1.1,1-1.1
				c0.6,0,1.1,0.4,1.1,1l0.2,5.2c0,0.6-0.4,1.1-1,1.1L68.7,90C68.8,90,68.8,90,68.7,90z"/>
		</g>
	</g>
	<g id="XMLID_204_">
		<path id="XMLID_205_" class="st0" d="M62.5,57.2h-11c-0.6,0-1-0.5-1-1c0-0.6,0.5-1,1-1h11c0.6,0,1,0.5,1,1
			C63.6,56.8,63.1,57.2,62.5,57.2z"/>
	</g>
</g>
</svg>
